<svg id="Layer_1" data-name="Layer 1" xmlns="http://www.w3.org/2000/svg" viewBox="0 0 595.75 168.59"><defs><style>.cls-1{fill:#6bbe46;}.cls-2{fill:#231f20;}</style></defs><title>Untitled-4</title><path class="cls-1" d="M223.58,189.43H159.93a42.49,42.49,0,0,0-42.44,42.44V269a42.46,42.46,0,0,0,39.78,42.31V300.83a2.66,2.66,0,0,1,5.31,0v36l3.6-3.61a74,74,0,0,1,52.68-21.82h4.72A42.49,42.49,0,0,0,266,269V231.87A42.49,42.49,0,0,0,223.58,189.43Zm-6.6,51q0,.84,0,1.68c0,17.2-13.09,37-37,37a36.75,36.75,0,0,1-20-5.85,24.34,24.34,0,0,0,3.1.19,26.09,26.09,0,0,0,16.16-5.57,13,13,0,0,1-12.15-9,13.13,13.13,0,0,0,2.45.23,12.89,12.89,0,0,0,3.42-.46,13,13,0,0,1-10.44-12.76v-.16a13.11,13.11,0,0,0,5.9,1.63,13,13,0,0,1-4-17.38,36.93,36.93,0,0,0,26.83,13.6,12.64,12.64,0,0,1-.34-3,13,13,0,0,1,22.52-8.9,26.22,26.22,0,0,0,8.26-3.16,13.07,13.07,0,0,1-5.72,7.2,25.68,25.68,0,0,0,7.47-2.05A26.49,26.49,0,0,1,217,240.43Z" transform="translate(-117.49 -178.85)"/><path class="cls-2" d="M291.86,240.38l8.13-9.72c4.46,3.88,10.23,6.55,15.39,6.55,5.91,0,8.8-2.33,8.8-6.05,0-3.94-3.56-5.21-9-7.46L307,220.23c-6.49-2.64-12.64-8-12.64-17.07,0-10.38,9.27-18.67,22.31-18.67a29,29,0,0,1,20.15,8.21l-7.15,8.92c-4.13-3.16-8.05-4.91-13-4.91s-8,2-8,5.62c0,3.84,4.1,5.24,9.56,7.41l8,3.24c7.64,3.09,12.42,8.18,12.42,17,0,10.4-8.67,19.41-23.6,19.41A34.49,34.49,0,0,1,291.86,240.38Z" transform="translate(-117.49 -178.85)"/><path class="cls-2" d="M343,224.46c0-15.47,11-25,22.49-25,13.58,0,20.31,9.87,20.31,22.88a31.89,31.89,0,0,1-.59,6.24H356.69c1.27,6.92,6,10.09,12.37,10.09a19.83,19.83,0,0,0,10.31-3.12l4.67,8.52a31,31,0,0,1-16.91,5.37C353.54,249.43,343,240.24,343,224.46Zm30.73-5.23c0-5.24-2.28-9-7.92-9-4.47,0-8.32,3-9.28,9Z" transform="translate(-117.49 -178.85)"/><path class="cls-2" d="M393.17,200.6H404.7l1,6h.34c4-3.86,8.82-7.19,15.33-7.19,10.36,0,14.78,7.31,14.78,19.23v29.6H422.05V220.49c0-6.86-1.85-9-5.93-9-3.55,0-5.72,1.65-8.82,4.63v32.17H393.17Z" transform="translate(-117.49 -178.85)"/><path class="cls-2" d="M447.67,230.94V211.68h-6.51V201.14l7.3-.54,1.65-12.67H461.8V200.6h11.43v11.08H461.8v19.09c0,5.41,2.45,7.58,6.17,7.58a14.19,14.19,0,0,0,4.53-.91l2.23,10.26a33.68,33.68,0,0,1-10.6,1.73C452.35,249.43,447.67,242,447.67,230.94Z" transform="translate(-117.49 -178.85)"/><path class="cls-2" d="M479.07,186.24c0-4.33,3.44-7.39,8.18-7.39s8.18,3.06,8.18,7.39-3.44,7.38-8.18,7.38S479.07,190.54,479.07,186.24Zm1.1,14.36H494.3v47.68H480.17Z" transform="translate(-117.49 -178.85)"/><path class="cls-2" d="M504.3,200.6h11.52l1,6.11h.35c3.91-3.93,8.19-7.26,14.45-7.26,6.71,0,10.75,2.89,13.16,8,4.2-4.37,8.67-8,15-8,10.3,0,14.92,7.31,14.92,19.23v29.6H560.56V220.49c0-6.86-1.88-9-5.89-9-2.4,0-5.11,1.49-8.11,4.63v32.17H532.43V220.49c0-6.86-1.88-9-5.89-9-2.36,0-5.11,1.49-8.12,4.63v32.17H504.3Z" transform="translate(-117.49 -178.85)"/><path class="cls-2" d="M581.51,224.46c0-15.47,11-25,22.49-25,13.58,0,20.31,9.87,20.31,22.88a31.89,31.89,0,0,1-.59,6.24H595.2c1.26,6.92,6,10.09,12.36,10.09a19.83,19.83,0,0,0,10.31-3.12l4.68,8.52a31.08,31.08,0,0,1-16.92,5.37C592,249.43,581.51,240.24,581.51,224.46Zm30.73-5.23c0-5.24-2.28-9-7.92-9-4.47,0-8.32,3-9.28,9Z" transform="translate(-117.49 -178.85)"/><path class="cls-2" d="M631.67,200.6H643.2l1,6h.35c4-3.86,8.82-7.19,15.32-7.19,10.37,0,14.79,7.31,14.79,19.23v29.6H660.55V220.49c0-6.86-1.84-9-5.92-9-3.55,0-5.72,1.65-8.83,4.63v32.17H631.67Z" transform="translate(-117.49 -178.85)"/><path class="cls-2" d="M686.17,230.94V211.68h-6.51V201.14l7.3-.54,1.65-12.67H700.3V200.6h11.43v11.08H700.3v19.09c0,5.41,2.45,7.58,6.17,7.58a14.19,14.19,0,0,0,4.53-.91l2.23,10.26a33.67,33.67,0,0,1-10.59,1.73C690.85,249.43,686.17,242,686.17,230.94Z" transform="translate(-117.49 -178.85)"/><path class="cls-2" d="M311.53,266.17h17l19.67,62.63h-15L325,297.08c-1.75-6.26-3.42-13.67-5.09-20.2h-.39c-1.51,6.61-3.18,13.94-4.92,20.2l-8.23,31.72H291.86Zm-6.7,36.71H335v11H304.83Z" transform="translate(-117.49 -178.85)"/><path class="cls-2" d="M351.38,281.12h11.53l1,6h.35c4-3.86,8.82-7.19,15.32-7.19,10.37,0,14.79,7.31,14.79,19.23v29.6H380.26V301c0-6.86-1.85-9-5.93-9-3.54,0-5.71,1.65-8.82,4.64V328.8H351.38Z" transform="translate(-117.49 -178.85)"/><path class="cls-2" d="M401.77,315.58c0-10.05,8-15.48,26.85-17.48-.28-4.16-2.36-6.89-7.54-6.89-4,0-8,1.69-12.62,4.31l-5-9.28c6-3.69,12.87-6.27,20.36-6.27,12.19,0,18.94,7,18.94,21.57V328.8H431.22l-1-4.88h-.36c-4,3.53-8.51,6-13.86,6C407.29,330,401.77,323.61,401.77,315.58Zm26.85-.63v-8.33c-10.05,1.36-13.32,4.23-13.32,7.83,0,3.08,2.11,4.58,5.47,4.58C424,319,426.11,317.45,428.62,315Z" transform="translate(-117.49 -178.85)"/><path class="cls-2" d="M452.22,314V261.47h14.13v53.09c0,3,1.4,4,2.56,4a6,6,0,0,0,1.73-.2l1.68,10.42a18.2,18.2,0,0,1-7.09,1.18C455.54,330,452.22,323.63,452.22,314Z" transform="translate(-117.49 -178.85)"/><path class="cls-2" d="M475.87,346.49l2.51-10.77a14.61,14.61,0,0,0,3.21.61c4.66,0,7.11-2.57,8.35-6.26l.71-2.49-18.4-46.46h14.2l6.81,20.52c1.38,4.32,2.51,8.84,3.77,13.51h.38c1.06-4.51,2.12-9,3.31-13.51l5.79-20.52H520l-16.55,48.2c-4.53,11.94-9.62,18.13-20.82,18.13A22.14,22.14,0,0,1,475.87,346.49Z" transform="translate(-117.49 -178.85)"/><path class="cls-2" d="M520.78,323.3l6.36-8.8c4.31,3.26,8.3,5,12.3,5,4.2,0,6-1.61,6-4.11,0-3.14-4.72-4.56-9.63-6.48-5.85-2.27-12.62-6.14-12.62-14,0-8.88,7.21-14.93,18.22-14.93a27.11,27.11,0,0,1,16.8,6l-6.32,8.48c-3.4-2.46-6.74-4.07-10-4.07-3.65,0-5.45,1.43-5.45,3.81,0,3,4.47,4.2,9.41,6,6,2.23,12.84,5.63,12.84,14.35S551.86,330,539.09,330A31,31,0,0,1,520.78,323.3Z" transform="translate(-117.49 -178.85)"/><path class="cls-2" d="M564.08,266.76c0-4.33,3.44-7.38,8.18-7.38s8.18,3.05,8.18,7.38-3.44,7.39-8.18,7.39S564.08,271.06,564.08,266.76Zm1.1,14.36h14.13V328.8H565.18Z" transform="translate(-117.49 -178.85)"/><path class="cls-2" d="M585.09,323.3l6.36-8.8c4.32,3.26,8.31,5,12.3,5,4.2,0,6-1.61,6-4.11,0-3.14-4.73-4.56-9.63-6.48-5.85-2.27-12.62-6.14-12.62-14,0-8.88,7.22-14.93,18.22-14.93a27.06,27.06,0,0,1,16.8,6l-6.32,8.48c-3.39-2.46-6.74-4.07-10-4.07-3.65,0-5.45,1.43-5.45,3.81,0,3,4.47,4.2,9.41,6,6,2.23,12.84,5.63,12.84,14.35S616.18,330,603.4,330A31,31,0,0,1,585.09,323.3Z" transform="translate(-117.49 -178.85)"/></svg>